# xmcd CD database file
# Generated: Fri Mar 30 16:30:50 2001 by KSCD
# 
# Track frame offsets:
#       150
#       21205
#       47448
#       60615
#       80099
#       102706
#       123579
#       163719
#       199312
#       220366
#       239179
#
# Disc length: 3430 seconds
#
# Revision: 2
# Processed by: cddbd v1.4b41PL1 Copyright (c) Steve Scherf et al.
# Submitted via: Kscd 1.2.7
#
DISCID=a80d640b
DTITLE=Abi Wallenstein and Friends/For Hinz and Kunzt
DYEAR=1900
DGENRE=
TTITLE0=Route 66
TTITLE1=Walkin' the Dog
TTITLE2=Keep Your Hands off Her
TTITLE3=The Hunter
TTITLE4=Rockin' Shoes
TTITLE5=Shake Your Boogie
TTITLE6=Shake Your Hips
TTITLE7=Sugar Mama
TTITLE8=Evil
TTITLE9=Kansas City
TTITLE10=Susie Q
EXTD=
EXTT0=
EXTT1=
EXTT2=
EXTT3=
EXTT4=
EXTT5=
EXTT6=
EXTT7=
EXTT8=
EXTT9=
EXTT10=
PLAYORDER=
